<svg width="160" height="23" viewBox="0 0 160 23" fill="none" xmlns="http://www.w3.org/2000/svg">
<path d="M4.70512 14.3476V11.7834H9.31067V17.7084C9.31067 19.8991 8.28168 20.9945 6.22371 20.9945H3.08696C1.02899 20.9945 0 19.8991 0 17.7084V7.67576C0 5.48502 1.02899 4.38965 3.08696 4.38965H6.22371C8.28168 4.38965 9.31067 5.48502 9.31067 7.67576V9.19435H5.99965V7.25255C5.99965 7.11978 5.94986 7.0036 5.85029 6.90402C5.7673 6.80445 5.65942 6.75466 5.52665 6.75466H3.95828C3.82551 6.75466 3.70933 6.80445 3.60975 6.90402C3.52677 7.0036 3.48528 7.11978 3.48528 7.25255V18.1067C3.48528 18.2395 3.52677 18.3556 3.60975 18.4552C3.70933 18.5548 3.82551 18.6046 3.95828 18.6046H5.52665C5.65942 18.6046 5.7673 18.5548 5.85029 18.4552C5.94986 18.3556 5.99965 18.2395 5.99965 18.1067V14.3476H4.70512Z" fill="white"/>
<path d="M18.8746 4.38965C20.9325 4.38965 21.9615 5.48502 21.9615 7.67576V20.7455H18.4762V15.3434H15.9619V20.7455H12.4766V7.67576C12.4766 5.48502 13.5056 4.38965 15.5635 4.38965H18.8746ZM15.9619 12.6547H18.4762V7.25255C18.4762 7.11978 18.4265 7.0036 18.3269 6.90402C18.2439 6.80445 18.136 6.75466 18.0032 6.75466H16.4349C16.3021 6.75466 16.1859 6.80445 16.0863 6.90402C16.0034 7.0036 15.9619 7.11978 15.9619 7.25255V12.6547Z" fill="white"/>
<path d="M29.2645 20.7455H25.7792V7.67576C25.7792 5.48502 26.8082 4.38965 28.8661 4.38965H30.7084C31.9199 4.38965 32.7829 4.78797 33.2974 5.5846C33.7787 4.78797 34.6417 4.38965 35.8865 4.38965H37.7287C39.7867 4.38965 40.8157 5.48502 40.8157 7.67576V20.7455H37.3304V7.37703C37.3304 7.24426 37.2806 7.12808 37.181 7.0285C37.098 6.92892 36.9901 6.87913 36.8574 6.87913H35.5131C35.3803 6.87913 35.2641 6.92892 35.1645 7.0285C35.0815 7.12808 35.0401 7.24426 35.0401 7.37703V20.7455H31.5548V7.37703C31.5548 7.24426 31.505 7.12808 31.4054 7.0285C31.3224 6.92892 31.2145 6.87913 31.0818 6.87913H29.7375C29.6047 6.87913 29.4885 6.92892 29.3889 7.0285C29.3059 7.12808 29.2645 7.24426 29.2645 7.37703V20.7455Z" fill="white"/>
<path d="M50.8537 4.38965C52.9117 4.38965 53.9407 5.48502 53.9407 7.67576V20.7455H50.4554V15.3434H47.941V20.7455H44.4557V7.67576C44.4557 5.48502 45.4847 4.38965 47.5427 4.38965H50.8537ZM47.941 12.6547H50.4554V7.25255C50.4554 7.11978 50.4056 7.0036 50.306 6.90402C50.223 6.80445 50.1152 6.75466 49.9824 6.75466H48.414C48.2812 6.75466 48.1651 6.80445 48.0655 6.90402C47.9825 7.0036 47.941 7.11978 47.941 7.25255V12.6547Z" fill="white"/>
<path d="M61.2685 14.1484V20.7455H57.7832V4.6386H63.982C66.04 4.6386 67.069 5.73397 67.069 7.92471V9.79182C67.069 11.1195 66.596 11.966 65.65 12.3311C66.4798 12.6298 66.8947 13.3103 66.8947 14.3725V20.7455H63.4095V14.6463C63.4095 14.3144 63.2518 14.1484 62.9365 14.1484H61.2685ZM61.2685 7.0036V11.7087H63.1107C63.2435 11.7087 63.3514 11.6589 63.4343 11.5594C63.5339 11.4598 63.5837 11.3436 63.5837 11.2108V7.5015C63.5837 7.36873 63.5339 7.25255 63.4343 7.15297C63.3514 7.05339 63.2435 7.0036 63.1107 7.0036H61.2685Z" fill="white"/>
<path d="M74.0368 14.1484V20.7455H70.5516V4.6386H76.7504C78.8083 4.6386 79.8373 5.73397 79.8373 7.92471V9.79182C79.8373 11.1195 79.3643 11.966 78.4183 12.3311C79.2481 12.6298 79.6631 13.3103 79.6631 14.3725V20.7455H76.1778V14.6463C76.1778 14.3144 76.0201 14.1484 75.7048 14.1484H74.0368ZM74.0368 7.0036V11.7087H75.879C76.0118 11.7087 76.1197 11.6589 76.2027 11.5594C76.3023 11.4598 76.352 11.3436 76.352 11.2108V7.5015C76.352 7.36873 76.3023 7.25255 76.2027 7.15297C76.1197 7.05339 76.0118 7.0036 75.879 7.0036H74.0368Z" fill="white"/>
<path d="M89.7178 4.38965C91.7758 4.38965 92.8048 5.48502 92.8048 7.67576V20.7455H89.3195V15.3434H86.8051V20.7455H83.3199V7.67576C83.3199 5.48502 84.3489 4.38965 86.4068 4.38965H89.7178ZM86.8051 12.6547H89.3195V7.25255C89.3195 7.11978 89.2697 7.0036 89.1702 6.90402C89.0872 6.80445 88.9793 6.75466 88.8465 6.75466H87.2781C87.1454 6.75466 87.0292 6.80445 86.9296 6.90402C86.8466 7.0036 86.8051 7.11978 86.8051 7.25255V12.6547Z" fill="white"/>
<path d="M105.585 8.87072H102.274V7.60108C102.274 7.46831 102.224 7.35213 102.124 7.25255C102.041 7.15297 101.933 7.10318 101.801 7.10318H100.431C100.299 7.10318 100.182 7.15297 100.083 7.25255C99.9999 7.35213 99.9584 7.46831 99.9584 7.60108V10.464C99.9584 10.5968 99.9999 10.7129 100.083 10.8125C100.182 10.9121 100.299 10.9619 100.431 10.9619H102.672C104.73 10.9951 105.759 12.0904 105.759 14.248V17.7084C105.759 19.8991 104.73 20.9945 102.672 20.9945H99.7343C97.6763 20.9945 96.6474 19.8991 96.6474 17.7084V16.0404H99.9584V17.8329C99.9584 17.9656 99.9999 18.0818 100.083 18.1814C100.182 18.281 100.299 18.3307 100.431 18.3307H101.975C102.108 18.3307 102.215 18.281 102.298 18.1814C102.398 18.0818 102.448 17.9656 102.448 17.8329V14.6712C102.448 14.5384 102.398 14.4223 102.298 14.3227C102.215 14.2231 102.108 14.1733 101.975 14.1733H99.7343C97.6763 14.1733 96.6474 13.0779 96.6474 10.8872V7.67576C96.6474 5.48502 97.6763 4.38965 99.7343 4.38965H102.498C104.556 4.38965 105.585 5.48502 105.585 7.67576V8.87072Z" fill="white"/>
<path d="M146.821 7.43553V17.4681C146.821 19.6589 145.792 20.7543 143.734 20.7543H140.423C138.365 20.7543 137.336 19.6589 137.336 17.4681V7.43553C137.336 5.24479 138.365 4.14941 140.423 4.14941H143.734C145.792 4.14941 146.821 5.24479 146.821 7.43553ZM143.336 17.8665V7.01232C143.336 6.87955 143.286 6.76337 143.186 6.66379C143.103 6.56421 142.995 6.51442 142.863 6.51442H141.294C141.161 6.51442 141.045 6.56421 140.946 6.66379C140.863 6.76337 140.821 6.87955 140.821 7.01232V17.8665C140.821 17.9992 140.863 18.1154 140.946 18.215C141.045 18.3146 141.161 18.3644 141.294 18.3644H142.863C142.995 18.3644 143.103 18.3146 143.186 18.215C143.286 18.1154 143.336 17.9992 143.336 17.8665Z" fill="white"/>
<path d="M156.913 4.39836C158.971 4.39836 160 5.49373 160 7.68448V10.8959C160 13.0867 158.971 14.182 156.913 14.182H154.099V20.5053H150.614V4.39836H156.913ZM156.514 11.2942V7.28616C156.514 7.15339 156.464 7.03721 156.365 6.93763C156.282 6.83806 156.174 6.78827 156.041 6.78827H154.099V11.7921H156.041C156.174 11.7921 156.282 11.7423 156.365 11.6428C156.464 11.5432 156.514 11.427 156.514 11.2942Z" fill="white"/>
<path d="M121.569 19.3626H113.271V13.8305H121.569M134.017 13.8305V11.0644L132.634 4.14914H110.505L109.122 11.0644V13.8305H110.505V22.1287H124.336V13.8305H129.868V22.1287H132.634V13.8305M132.634 0H110.505V2.76609H132.634V0Z" fill="white"/>
</svg>
